<?xml version="1.0" encoding="UTF-8" standalone="no"?>
<!-- Created with Inkscape (http://www.inkscape.org/) -->

<svg
   width="297mm"
   height="210mm"
   viewBox="0 0 297 210"
   version="1.1"
   id="svg5"
   inkscape:version="1.2.1 (9c6d41e410, 2022-07-14)"
   sodipodi:docname="Sam blockbora.svg"
   xmlns:inkscape="http://www.inkscape.org/namespaces/inkscape"
   xmlns:sodipodi="http://sodipodi.sourceforge.net/DTD/sodipodi-0.dtd"
   xmlns="http://www.w3.org/2000/svg"
   xmlns:svg="http://www.w3.org/2000/svg">
  <sodipodi:namedview
     id="namedview7"
     pagecolor="#ffffff"
     bordercolor="#000000"
     borderopacity="0.25"
     inkscape:showpageshadow="2"
     inkscape:pageopacity="0.0"
     inkscape:pagecheckerboard="0"
     inkscape:deskcolor="#d1d1d1"
     inkscape:document-units="mm"
     showgrid="false"
     inkscape:zoom="0.50333193"
     inkscape:cx="488.74308"
     inkscape:cy="516.55773"
     inkscape:window-width="1366"
     inkscape:window-height="745"
     inkscape:window-x="-8"
     inkscape:window-y="-8"
     inkscape:window-maximized="1"
     inkscape:current-layer="layer1" />
  <defs
     id="defs2" />
  <g
     inkscape:label="Слой 1"
     inkscape:groupmode="layer"
     id="layer1">
    <rect
       style="fill:#000080;stroke-width:0.264583"
       id="rect111"
       width="300.15399"
       height="77.272568"
       x="-3.679646"
       y="-1.0513275" />
    <rect
       style="fill:#241c1c;stroke-width:0.264583"
       id="rect113"
       width="298.0513"
       height="67.810623"
       x="-0.52566373"
       y="141.40355" />
    <rect
       style="fill:#ffccaa;stroke-width:0.264583"
       id="rect219"
       width="306.98761"
       height="70.438942"
       x="-6.8336282"
       y="72.01593" />
    <rect
       style="fill:#ff5555;stroke-width:0.264583"
       id="rect325"
       width="36.270794"
       height="63.079643"
       x="10.513274"
       y="46.784069" />
    <rect
       style="fill:#ff5555;stroke-width:0.264583"
       id="rect379"
       width="43.630089"
       height="62.02832"
       x="35.745132"
       y="36.270794" />
    <path
       style="fill:#800000;stroke-width:0.264583"
       d="m 113.54336,65.707963 -57.297344,97.773447 44.681414,2.62832 43.63009,-97.773447 z"
       id="path435" />
    <path
       style="fill:#ff00ff;stroke-width:0.264583"
       d="m 163.48141,116.17168 1.05133,-78.849555 c 0,0 11.5646,-2.628321 10.51328,-0.525664 -1.05133,2.102654 -1.05133,80.426549 -1.05133,80.426549 z"
       id="path491" />
    <path
       sodipodi:type="star"
       style="fill:#ff00ff;stroke-width:0.264583"
       id="path599"
       inkscape:flatsided="false"
       sodipodi:sides="5"
       sodipodi:cx="157.6991"
       sodipodi:cy="35.219467"
       sodipodi:r1="20.853315"
       sodipodi:r2="33.658798"
       sodipodi:arg1="-0.29650758"
       sodipodi:arg2="-0.42381324"
       inkscape:rounded="0"
       inkscape:randomized="0"
       d="m 177.64243,29.126504 10.73758,-7.748858 -18.72333,30.92623 10.6877,7.81752 -35.19843,-8.250221 -4.13222,12.580351 -3.03048,-36.025146 -13.24156,-0.04244 33.32548,-14.014545 -4.0515,-12.6065771 z"
       inkscape:transform-center-x="-0.41277141"
       inkscape:transform-center-y="-1.6243906" />
    <ellipse
       style="fill:#ffff00;stroke-width:0.335034"
       id="path653"
       cx="157.96194"
       cy="34.956638"
       rx="11.827434"
       ry="8.1477871" />
    <rect
       style="fill:#241c1c;stroke-width:0.264583"
       id="rect867"
       width="38.899117"
       height="30.488495"
       x="250.21593"
       y="113.54336" />
    <rect
       style="fill:#241c1c;stroke-width:0.264583"
       id="rect869"
       width="42.053097"
       height="38.899117"
       x="171.89204"
       y="108.81239" />
    <rect
       style="fill:#241c1c;stroke-width:0.264583"
       id="rect871"
       width="34.16814"
       height="24.706196"
       x="10.513274"
       y="117.22301" />
    <rect
       style="fill:#00ffff;stroke-width:0.264583"
       id="rect873"
       width="288.58939"
       height="26.283186"
       x="5.2566371"
       y="179.77699" />
    <path
       style="fill:#28170b;stroke-width:0.264583"
       d="m 66.75929,145.60885 c 2.102657,0 23.129205,7.35929 23.129205,7.35929 l 0.525664,10.51327 15.835621,3.15398 c 0,0 -0.46833,2.8141 -0.59137,8.41063 -0.16041,7.29655 32.32831,2.23407 32.32831,2.23407 l -17.60973,11.95885 -36.79646,-5.25664 -23.654866,-9.46195 z"
       id="path981"
       sodipodi:nodetypes="ccccsccccc" />
    <rect
       style="fill:#28170b;stroke-width:0.264583"
       id="rect1197"
       width="27.334513"
       height="11.564602"
       x="12.615929"
       y="58.874336" />
    <rect
       style="fill:#008000;stroke-width:0.264583"
       id="rect1253"
       width="11.564602"
       height="13.667256"
       x="27.860178"
       y="80.952209" />
    <rect
       style="fill:#008000;stroke-width:0.264583"
       id="rect1255"
       width="12.615929"
       height="16.821239"
       x="47.309734"
       y="46.784069" />
    <rect
       style="fill:#008000;stroke-width:0.264583"
       id="rect1257"
       width="19.975222"
       height="9.4619465"
       x="49.938053"
       y="79.375214" />
    <rect
       style="fill:#008000;stroke-width:0.264583"
       id="rect1259"
       width="9.9876108"
       height="13.141593"
       x="15.769911"
       y="58.348671" />
    <rect
       style="fill:#241c1c;stroke-width:0.264583"
       id="rect1261"
       width="15.244247"
       height="17.346903"
       x="54.143364"
       y="48.886723" />
    <path
       style="fill:#008080;stroke-width:0.264583"
       d="m 198.43805,32.328318 c 9.98761,-17.346902 14.45575,-18.923893 23.9177,-16.032743 9.46195,2.89115 15.50708,8.673451 18.92389,2.365487 3.41682,-6.307965 18.9239,-12.3530975 21.28938,-3.679646 2.36549,8.673451 15.24424,7.359292 15.24424,20.763715 0,13.404427 11.30179,15.769913 1.05133,33.64248 -10.25044,17.872564 -17.08406,41.790269 -35.21946,27.860175 -18.1354,-13.930088 -36.79646,-27.334512 -41.00177,-40.738938 -4.20531,-13.404424 -4.20531,-24.18053 -4.20531,-24.18053 z"
       id="path1413" />
    <path
       style="fill:#ff7f2a;stroke-width:0.264583"
       d="M 290.16637,18.39823 C 244.95929,8.9362832 249.69026,4.7309735 223.93274,4.7309735 c -25.75752,0 -58.34867,-8.4106196 -90.41416,-3.1539824 -32.06548,5.2566372 -82.5292,0.5256637 -95.670792,6.3079647 -13.141594,5.7823002 -9.461947,8.9362832 2.628318,11.5646012 12.090265,2.628319 60.451324,16.295574 71.490264,7.884957 11.03894,-8.41062 38.37345,-9.987611 58.87433,-8.936284 20.50089,1.051327 119.32567,0 119.32567,0 z"
       id="path1469" />
    <rect
       style="fill:#ac9393;stroke-width:0.264583"
       id="rect1577"
       width="49.412392"
       height="12.878761"
       x="168.73805"
       y="105.39558" />
    <rect
       style="fill:#6c5353;stroke-width:0.264583"
       id="rect1631"
       width="43.892918"
       height="10.513274"
       x="246.79912"
       y="107.49822" />
    <rect
       style="fill:#6c5353;stroke-width:0.264583"
       id="rect1633"
       width="39.161945"
       height="7.8849554"
       x="8.4106197"
       y="115.12035" />
    <rect
       style="fill:#6c5353;stroke-width:0.264583"
       id="rect1635"
       width="54.143364"
       height="18.923893"
       x="43.630089"
       y="169.78938" />
    <rect
       style="fill:#6c5353;stroke-width:0.264583"
       id="rect1637"
       width="127.73628"
       height="11.038938"
       x="149.2885"
       y="169.26372" />
  </g>
</svg>
